inDegrees=no
num_controls=7
num_derivatives=13
num_iterations=87
num_multipliers=7
num_parameters=0
num_slacks=7
num_states=26
objective=0.454562
objective_accelerations=0.044458
objective_balance=0.000798
objective_effort=0.036357
objective_height=0.366845
objective_ligament=0.006105
solver_duration=971.431001
status=Solve_Succeeded
success=true
DataType=double
version=3
OpenSimVersion=4.5
endheader
time	/jointset/ground_pelvis/pelvis_tilt/value	/jointset/ground_pelvis/pelvis_tx/value	/jointset/ground_pelvis/pelvis_ty/value	/jointset/hip_r/hip_flexion_r/value	/jointset/hip_r/hip_adduction_r/value	/jointset/hip_r/hip_rotation_r/value	/jointset/back/lumbar_extension/value	/jointset/patellofemoral_r/patellar_flexion_r/value	/jointset/knee_r/knee_flexion_r/value	/jointset/knee_r/knee_adduction_r/value	/jointset/knee_r/knee_rotation_r/value	/jointset/ankle_r/ankle_angle_r/value	/jointset/subtalar_r/subtalar_angle_r/value	/jointset/ground_pelvis/pelvis_tilt/speed	/jointset/ground_pelvis/pelvis_tx/speed	/jointset/ground_pelvis/pelvis_ty/speed	/jointset/hip_r/hip_flexion_r/speed	/jointset/hip_r/hip_adduction_r/speed	/jointset/hip_r/hip_rotation_r/speed	/jointset/back/lumbar_extension/speed	/jointset/patellofemoral_r/patellar_flexion_r/speed	/jointset/knee_r/knee_flexion_r/speed	/jointset/knee_r/knee_adduction_r/speed	/jointset/knee_r/knee_rotation_r/speed	/jointset/ankle_r/ankle_angle_r/speed	/jointset/subtalar_r/subtalar_angle_r/speed	/forceset/tau_hip_flexion_r	/forceset/tau_hip_adduction_r	/forceset/tau_hip_rotation_r	/forceset/tau_knee_flexion_r	/forceset/tau_ankle_angle_r	/forceset/tau_subtalar_angle_r	/forceset/tau_lumbar_extension	lambda_cid13_p0	lambda_cid14_p0	lambda_cid14_p1	lambda_cid14_p2	lambda_cid14_p3	lambda_cid14_p4	lambda_cid14_p5	/jointset/ground_pelvis/pelvis_tilt/accel	/jointset/ground_pelvis/pelvis_tx/accel	/jointset/ground_pelvis/pelvis_ty/accel	/jointset/hip_r/hip_flexion_r/accel	/jointset/hip_r/hip_adduction_r/accel	/jointset/hip_r/hip_rotation_r/accel	/jointset/back/lumbar_extension/accel	/jointset/patellofemoral_r/patellar_flexion_r/accel	/jointset/knee_r/knee_flexion_r/accel	/jointset/knee_r/knee_adduction_r/accel	/jointset/knee_r/knee_rotation_r/accel	/jointset/ankle_r/ankle_angle_r/accel	/jointset/subtalar_r/subtalar_angle_r/accel	gamma_cid13_p0	gamma_cid14_p0	gamma_cid14_p1	gamma_cid14_p2	gamma_cid14_p3	gamma_cid14_p4	gamma_cid14_p5
0.5	-0.1249430019582478	0.03397061355921827	0.8143157646680593	0.8487496306397482	-0.2519207369839364	-0.05585842282944702	-0.6438242794702755	0.9380825257061107	0.9380825257062144	0.06360729599461618	0.1741754971587325	0.2891994003758349	0.09088687370521825	-0.3238139007664129	-0.191548148179488	-0.4629157766424164	1.751685771744582	-0.03859814951221658	0.4992657070732357	-0.7352265359346628	1.877109423952145	1.877109423952088	-0.08634985295251356	-0.002731313375740949	0.5265250589281851	0.1109412792598486	-0.1881183465646988	0.003612293098377489	0.03536100151158284	-0.2920134053780718	-0.000435435298170595	-0.01419250176562753	0.2347209049797697	-8.8295337332996	-43.45690376602985	-12.42096208122476	0.8580590869466569	-3.774709525053467	-644.4430180922373	58.51547708727739	0.2282370765987467	0.5430532209664428	-0.3573055881548796	-1.197640932722178	0.2104009289169478	-0.1730388924362062	1.746494924963022	-1.415868854912338	-1.415868854912343	0.4451960445867581	-0.007574744882010393	-0.4845607658010816	0.2307373027324055	-6.280999138914417e-08	1.67620990428413e-08	1.254085231151534e-06	-4.55609328433161e-08	-1.397072550840041e-07	-1.251376930975563e-07	8.217790760753283e-07
0.51	-0.1281690571042511	0.03208242795668351	0.8096697958052725	0.8662039218894889	-0.2522965457079077	-0.05087650266899794	-0.6510886615929318	0.9567800276943061	0.9567800276942758	0.06276557182800706	0.1741495057315562	0.2944394046026835	0.09200706808185609	-0.3213488816180711	-0.1860757270726367	-0.4661753402856825	1.738940960587015	-0.036555458490739	0.4970389230913031	-0.7175699066549566	1.862136421366488	1.862136421366457	-0.08204271649862459	-0.002458742269587375	0.5213992981046875	0.1130925568849502	-0.1940841552507492	0.004749848821266538	0.03605011838788498	-0.2966675613985141	-0.001630931863339989	-0.01403065852746842	0.2403207591284994	-7.875250567608876	-44.12717689669601	-12.6150024040812	1.056868343935287	-3.643313000325438	-648.9381866896133	58.65369067626374	0.262875737562712	0.5512918156432463	-0.2949086280577801	-1.347624449278946	0.2025115067452967	-0.2595222587374735	1.787244220685617	-1.576186259644931	-1.576186259641087	0.4165023041793712	0.04594620591665055	-0.5380948029007236	0.2067846919242401	-5.922122943529103e-08	2.691100874376706e-08	1.362581317337963e-06	2.372637413455209e-08	-1.576618312883378e-07	-1.199559537105023e-07	9.003447069784666e-07
0.52	-0.1313690137780482	0.03024935761723706	0.8049943059309242	0.8835238203792555	-0.2526516658580673	-0.0459192551699036	-0.6581740779645479	0.9753201655967928	0.9753201655966297	0.06196552499760319	0.1741264946489549	0.2996258490088424	0.09314866757464993	-0.3185942063252959	-0.1805250955618289	-0.4688199789547585	1.724807219749245	-0.03446043474997269	0.4943311748027419	-0.699433385726803	1.845636606810729	1.845636606810723	-0.07801438570915901	-0.002135244461330127	0.5158130947901255	0.1152223024910596	-0.2000499639367849	0.005887404544147116	0.03673923526423085	-0.3013217174189536	-0.002826428428513312	-0.01386881528932436	0.2459206132772436	-6.978767946045539	-44.79675890245314	-12.80372123834508	1.248888771238752	-3.536676176770831	-653.4247172291271	58.82559566731046	0.2861683054854361	0.5586953017577442	-0.2343205933168194	-1.475426868763034	0.2208674727746948	-0.2692317537619202	1.842473254652495	-1.721231248932868	-1.721231248932863	0.3894349117020751	0.002610595538741086	-0.5766492640139255	0.2264308989339473	-5.210388980896127e-08	3.032204949438927e-08	1.321764122670687e-06	6.352590657268291e-08	-1.577044124331976e-07	-1.075421470971314e-07	8.863464275559214e-07
0.53	-0.1345400050776397	0.02847213290822704	0.8002954597986823	0.9006955728494204	-0.2529856338770167	-0.04099129335032078	-0.6650758301974617	0.9936878654406881	0.9936878654406147	0.06120448100445244	0.174106853640893	0.3047542095215314	0.09431137428914553	-0.3155545604848625	-0.1749112700390268	-0.4708442723540889	1.709316697199132	-0.03233422032640046	0.4912027199047124	-0.6808510382047804	1.827664011522097	1.827664011522051	-0.07421661992301581	-0.00178977528326858	0.5097883235571983	0.1173005519186044	-0.2059157959474095	0.006946861250674238	0.03738930393167776	-0.3060486322989746	-0.004063356589405066	-0.01374979486971418	0.251402031605722	-6.140885963043125	-45.48788078090472	-13.01444883655438	1.444006154152013	-3.367639862844952	-657.950911754524	58.97598479764741	0.3202911295786539	0.5639810623815341	-0.170757646663986	-1.619846636440281	0.2084291311468486	-0.3435204451122895	1.876018898623522	-1.871166562654756	-1.871166562660902	0.3717924126546859	0.05104801227526107	-0.6260298313628838	0.1959628441969033	-4.571473555061218e-08	3.295367429734075e-08	1.275425634211475e-06	9.593511967329349e-08	-1.567772349526887e-07	-9.521458117758679e-08	8.680263588891531e-07
0.54	-0.1376791142375751	0.02675129743141308	0.7955795159457627	0.9177056237564258	-0.2532983536109304	-0.03609638969717803	-0.6717897782756252	1.011868660752931	1.011868660752947	0.06048078366927268	0.1740907739112799	0.3098201945662054	0.09549435167382297	-0.3122177783941748	-0.169247249122616	-0.4722395230903307	1.692466907116829	-0.03021077774289082	0.4877195415151291	-0.6618725547769033	1.808255700480405	1.808255700480317	-0.07054505411350273	-0.001422988771791795	0.5033380011870405	0.1192764365274356	-0.2117816279580189	0.008006317957194206	0.03803937259915285	-0.310775547178993	-0.005300284750300345	-0.01363077445011678	0.2568834499342152	-5.361839512358554	-46.17881970514988	-13.22009853004108	1.63255038644812	-3.223465940714287	-662.4761520832105	59.15795874670035	0.3455955555362735	0.5687343804794874	-0.1085120606990807	-1.74728037520091	0.220313104762175	-0.3401764520726739	1.921700435823397	-2.008374399545303	-2.008374399545321	0.3641949163760488	0.006874062221802931	-0.6617594914600375	0.2059579351912215	-4.013123318875236e-08	3.472296656244376e-08	1.222978480280335e-06	1.201678092515411e-07	-1.547771330356017e-07	-8.298243049376493e-08	8.449247361649465e-07
0.55	-0.1407834447435452	0.02508730216823355	0.7908527674676229	0.9345405703498081	-0.2535898307371098	-0.03123812411583986	-0.6783120427436209	1.029848375353166	1.02984837535309	0.05979298472289038	0.1740783864476623	0.3148196443302333	0.09669662248613348	-0.3086012984916274	-0.1635478292355668	-0.4730039066334736	1.674304972349227	-0.02808688149224792	0.4838674734369894	-0.6425276071274769	1.78746111435887	1.787461114358838	-0.06704673535556105	-0.001050573285114522	0.4964885078949342	0.1211587131496505	-0.2174780533101009	0.008988021409341898	0.03864661082175115	-0.3155995199270583	-0.006505123074404661	-0.01355947171645742	0.2621848277540719	-4.641392794204188	-46.86438664244498	-13.44630893957034	1.825260647726953	-3.032604678572503	-666.9835761237786	59.32081860759565	0.3767319509316875	0.5711111972640491	-0.04447687756670774	-1.883261021757042	0.2081771546154288	-0.4177209432592563	1.948801683689199	-2.148909082466476	-2.148909082458151	0.3380090194741089	0.05308008126908546	-0.7060944456297593	0.1767139145980694	-3.477551261457949e-08	3.604452040419453e-08	1.168027893704742e-06	1.414951528184711e-07	-1.521979617434489e-07	-7.137385461292426e-08	8.204521780483273e-07
0.5600000000000001	-0.1438501989018258	0.02348041418481383	0.7861215600787628	0.9511873753966736	-0.2538601190469025	-0.02642037900679991	-0.6846392757842844	1.047613362419383	1.047613362419216	0.05913924069687548	0.1740698540967879	0.3197486891218317	0.09791718634243836	-0.304702508856371	-0.1578257931706563	-0.4731313052344082	1.654838597812938	-0.02597301446559907	0.4796154470558636	-0.6228662693105734	1.765310193676977	1.765310193677	-0.06373407003878397	-0.0006519662233023229	0.4892570067010747	0.1229350453263236	-0.2231744786621679	0.009969724861483412	0.03925384904437539	-0.3204234926751213	-0.007709961398512297	-0.01348816898280942	0.2674862055739429	-3.978922373180914	-47.55054633491663	-13.66777548259	2.011677471414231	-2.866235083372191	-671.5017209246197	59.51372169687835	0.4020575020781031	0.5732576160517687	0.01888492774257351	-2.008168328938247	0.2183072599633661	-0.4201681126698918	1.984978469318786	-2.279641311617181	-2.279641311617074	0.3270642281431311	0.01211237724879956	-0.7381610718106565	0.1847690460828626	-2.969313018563093e-08	3.682878813792263e-08	1.110073187955804e-06	1.5933608117182e-07	-1.489239072012169e-07	-6.051356849566097e-08	7.943344974608131e-07
0.5700000000000001	-0.146876621805293	0.0219308100505565	0.7813922575787867	0.967633170013969	-0.2541093130709973	-0.02164702891758876	-0.6907683907355818	1.065150231794832	1.065150231794697	0.05851767935910089	0.174065278409331	0.3246035914157603	0.09915499680474486	-0.3005368492203057	-0.1520955693071313	-0.4726224846591562	1.634110951103878	-0.02387082723773981	0.4749950471721675	-0.6029169828100464	1.741850396076618	1.741850396076711	-0.06060430386421358	-0.0002640235237862641	0.4816660531554416	0.1246040335102196	-0.2286956802353204	0.01089913799828791	0.03982029886382103	-0.3252773532319908	-0.008931662903965838	-0.01346536804211312	0.2725933060164599	-3.373677299168397	-48.24405880226668	-13.91288769381694	2.203341910772746	-2.638645545124513	-675.9502939923073	59.67079759749071	0.4306071745327509	0.5727950131900631	0.08287626359098059	-2.136464368788193	0.2054974891037566	-0.4919744156239749	2.005864461220578	-2.411136421038218	-2.411136421027823	0.3021564993966757	0.05207875925779943	-0.7782031049419751	0.1547008557733423	-2.532818550822728e-08	3.698225718001722e-08	1.049962268484785e-06	1.713477665296601e-07	-1.450506524215937e-07	-5.011023432899091e-08	7.655837946081433e-07
0.58	-0.1498600307163668	0.02043848620327187	0.7766712424127981	0.9838654078587967	-0.2543376206158321	-0.01692168252509549	-0.696696820677713	1.082446105706919	1.082446105706816	0.05792666042053288	0.1740645708574574	0.3293808560524321	0.1004088445791364	-0.2960997103777604	-0.1463697357761154	-0.4714738384369242	1.612127243318889	-0.02179571861361838	0.4700147077122919	-0.5827292674774842	1.717111101004538	1.717111101004701	-0.057625590198337	0.0001216608939205318	0.4737294752497151	0.1261425077433308	-0.2342168818084578	0.01182855113509336	0.04038674868324685	-0.330131213788859	-0.01015336440942027	-0.01344256710141528	0.2777004064589906	-2.824299228122256	-48.93903199686585	-14.15367637044058	2.389086591837681	-2.434620652496926	-680.4223011040872	59.85645661571694	0.4563533433740959	0.5723795495499293	0.1468500571386225	-2.259380544123976	0.2128915392157938	-0.4921560279057853	2.032664235725783	-2.535540805961556	-2.535540805961512	0.2968537264043667	0.01166072088695531	-0.8072859438293332	0.1586662559258822	-2.189757836771931e-08	3.631422094928683e-08	9.870432567245452e-07	1.757678796142796e-07	-1.403970438444376e-07	-4.030200037704699e-08	7.334040395031783e-07
0.59	-0.152797787789853	0.019003359507798	0.7719648966244832	0.9998717014396246	-0.2545453185718489	-0.01224777751895228	-0.7024222459926169	1.099488363417254	1.099488363417335	0.0573647324119295	0.1740675631981008	0.3340771138907207	0.1016774177114369	-0.2914086717147773	-0.1406596612782285	-0.4696889946707986	1.588929450223464	-0.0197525484766901	0.4647135048622458	-0.5623286821784668	1.691139822703031	1.691139822703093	-0.05477701892239217	0.0004742412752901233	0.4654713001049854	0.1275436258319975	-0.2395145606669133	0.0126625567790738	0.0409156026774999	-0.3350214835478007	-0.01132662027445665	-0.01345171597151628	0.2825744535686412	-2.329148968752676	-49.61556598008566	-14.40478205376836	2.576098658881476	-2.193758331290094	-684.7726164517857	60.03184119439113	0.4819367543949931	0.5696851718525658	0.2102433084844642	-2.380278077231415	0.1987978481921441	-0.5570791776524278	2.04782267568857	-2.658010118634107	-2.658010118649293	0.2764275617427608	0.04674301799290002	-0.8427296450236114	0.1267309486841334	-1.869362885096663e-08	3.573366860990637e-08	9.273936295878439e-07	1.79560723834892e-07	-1.358692294583109e-07	-3.118055659450973e-08	7.022152238458813e-07
